# xmcd
#
# Track frame offsets:
#	150
#	12460
#	25762
#	37430
#	63530
#	80530
#	92075
#	104150
#	116320
#	128922
#	141977
#	154820
#	175365
#	186670
#	196480
#	211157
#	223447
#	236982
#
# Disc length: 3387
#
# Revision: 3
# Processed by: cddbd v1.5.1PL0 Copyright (c) Steve Scherf et al.
# Submitted via: CDex 1.50beta10
# Normalized: r2:DSETVAR1,TDELIM( - )
#
DISCID=200d3912
DTITLE=Various Artist - Country Juke-Box Hits - CD 2
DYEAR=1900
DGENRE=
TTITLE0=Everly Brothers - Let it be me
TTITLE1=Alabama - Patches
TTITLE2=Willie Nelson - End of understanding
TTITLE3=The Burrito Brothers - Moonlightrider
TTITLE4=Lynn Anderson - Blue bayou
TTITLE5=Freddy Fender - Before the next teardrop falls
TTITLE6=Anita Perras - One smokey rose
TTITLE7=Waylon Jennings - Don't think twice
TTITLE8=Johnny Cash - Folsom prison blues
TTITLE9=Gene Pitney - The man who shot Liberty Valence
TTITLE10=Bobby Bare - Tender years
TTITLE11=Gary Fjellgaard - Tears of mainstreet
TTITLE12=Patsy Cline - Just out of reach
TTITLE13=Hank Locklin - Please help me I'm falling
TTITLE14=Terry Carisse - Starting forever again
TTITLE15=Kenny Rogers - Ruben James
TTITLE16=Jerry Lee Lewis - Cold cold heart
TTITLE17=Matt Minglewood - Someday I'm gonna ride in a cadillac
EXTD=
EXTT0=
EXTT1=
EXTT2=
EXTT3=
EXTT4=
EXTT5=
EXTT6=
EXTT7=
EXTT8=
EXTT9=
EXTT10=
EXTT11=
EXTT12=
EXTT13=
EXTT14=
EXTT15=
EXTT16=
EXTT17=
PLAYORDER=
